<svg id="DESIGN" xmlns="http://www.w3.org/2000/svg" xmlns:xlink="http://www.w3.org/1999/xlink" viewBox="0 0 692.97 288.05"><defs><style>.cls-1{fill:#2f292e;}.cls-2{fill:url(#radial-gradient);}.cls-3{fill:#fff;}.cls-4{fill:#dfdfe5;}</style><radialGradient id="radial-gradient" cx="261.38" cy="479.98" r="130.05" gradientUnits="userSpaceOnUse"><stop offset="0.37" stop-color="#2f292e"/><stop offset="0.39" stop-color="#39333d"/><stop offset="0.48" stop-color="#5b5570"/><stop offset="0.57" stop-color="#766f98"/><stop offset="0.65" stop-color="#8982b4"/><stop offset="0.72" stop-color="#958ec6"/><stop offset="0.77" stop-color="#9992cc"/></radialGradient></defs><path class="cls-1" d="M444.77,501.78c9,7.33,51.73,44.26,70.58,23.7,2.75-2.88,6.42-.13,5.11,1.44-25.67,30.9-70.32-5.37-83-16.5-9.56,8.91-18.59,13.36-27.36,12.7-22.66-1.57-11.4-33.25,8.77-33.65,8.12-.26,12.83,4.06,18.59,7.86,10.61-10.74,43.74-94.54,26.06-88.52-16.76,5.76-28.94,49.37-21.87,54.74,3.67,3.4-2,8.25-6.15,2.49-8.12-11.14,8.77-65,31.95-64.82,9.56.13,17.15,6.94,13.88,24.35C477.38,446.92,461,482.27,444.77,501.78Zm-27.23-4.19c-11.92.26-16.76,15.45-9.82,18.73,8.64,4.06,19.51-5.5,23.57-10.48C423.17,499.16,422.12,497.59,417.54,497.59Z" transform="translate(-133.5 -335.96)"/><path class="cls-1" d="M499,510.82c6.16,0,19.38-19.25,25.66-32.48h6.16c-6.42,14-21.61,40.59-35.22,40.73-10.09,0-12.05-11.53-8.78-22.13,3.54-11.4,8-20.82,10.87-32.61,2.1-8.77,13-4.32,12.57,3.8-.65,11.65-14.4,26.84-14.79,38.36C495.31,509.24,496.75,510.82,499,510.82Zm18.46-60.76c-2.48,4.19-6.94,5.76-10.21,3.54s-3.93-7.34-1.44-11.53,6.94-5.89,10.08-3.66S519.8,445.87,517.44,450.06Z" transform="translate(-133.5 -335.96)"/><path class="cls-1" d="M549.65,418.77c22.13-27.76,41.25-15.19,33.52,10.34-5.5,18.33-26.32,45.7-47.79,50.8-3.8,20.82-.52,30.77,7.2,30.77,7.2,0,22-11.78,33-32.47h6.28c-8,17-29.59,42.56-43.34,40.46C509.59,514.48,526.74,447.44,549.65,418.77Zm25.54,7.72c2.35-9.69.78-16.11-12.05-3.27-11.78,11.78-22,36.92-25.66,48.71C553.32,467.87,571,443.91,575.19,426.49Z" transform="translate(-133.5 -335.96)"/><path class="cls-1" d="M612.5,536.09c-5.76,20.55-22.26,46.22-41.77,47.79-32.86,2.88-34.3-36.92-5.89-54.47,10.61-6.55,25.14-8.51,39.28-3.8.13-.13,3.93-24.88,4.45-27.63.79-5.23,1.84-9.29,2.62-14.79-5.5,11.52-22.65,35.74-32,35.61-17.94-.13-6.28-41.37,3.54-54.6,8.12-10.87,16.63-1.44,12.44,4.85-11.39,16.76-19.38,41.11-13.75,41.77,8.9.91,30.51-40.59,35.48-48.32,2.75-4.06,6.68-4.06,9-2,2.36,1.45,4.58,4.33,3.93,7.6-1.31,6-8.91,28.68-9.82,33-2.1,9.95-3.28,19.64-5.76,29.46,5.89,3.27,11,9.16,12.17,12.44,1.7,4.45-1.83,7.2-4.06,3A28.59,28.59,0,0,0,612.5,536.09Zm-48.31,1.18c-16.5,12.7-17.81,43.08,3.4,41.64,17.55-1.31,30.64-27.76,35.35-47.41A39.53,39.53,0,0,0,564.19,537.27Z" transform="translate(-133.5 -335.96)"/><path class="cls-1" d="M644.71,521.16c.13,1.83-3.8,6-6-.26-1.05-3.14-1.05-8.51,0-14.54C642.88,484,654,460.14,662,438.41c5.77-15.32,7.73-30.12,5.37-30.91-24.35,0-46.74-3.14-48.31,7.73-.79,5.37,5.76,13.49,15.45,12.7,5.63-1.18,5.89,8.64-2.49,8.12-10.48-.66-22.13-11.13-20.17-21.87,1.31-6.68,7.08-11.13,14.15-12.18,18.72-2.61,75.42.4,98.86-.65,3.92.65,4.71,8-.13,7.2-6.29-.91-25.54-.26-50.29-.91,13.36,4.71,6,17.41,1.18,31C668,460,643.4,505.58,644.71,521.16Z" transform="translate(-133.5 -335.96)"/><path class="cls-1" d="M695.38,510.82c6.16,0,19.38-19.25,25.67-32.48h6.15c-6.42,14-21.6,40.59-35.22,40.73-10.09,0-12.05-11.53-8.78-22.13,3.54-11.4,8-20.82,10.87-32.61,2.1-8.77,13-4.32,12.57,3.8-.65,11.65-14.4,26.84-14.79,38.36C691.72,509.24,693.16,510.82,695.38,510.82Zm18.46-60.76c-2.48,4.19-6.94,5.76-10.21,3.54s-3.93-7.34-1.44-11.53,6.94-5.89,10.08-3.66S716.2,445.87,713.84,450.06Z" transform="translate(-133.5 -335.96)"/><path class="cls-1" d="M746.05,418.77c22.13-27.76,41.25-15.19,33.52,10.34-5.49,18.33-26.31,45.7-47.79,50.8-3.8,20.82-.52,30.77,7.2,30.77,7.21,0,22-11.78,33-32.47h6.29c-8,17-29.6,42.56-43.34,40.46C706,514.48,723.14,447.44,746.05,418.77Zm25.54,7.72c2.35-9.69.78-16.11-12.05-3.27-11.78,11.78-22,36.92-25.66,48.71C749.72,467.87,767.4,443.91,771.59,426.49Z" transform="translate(-133.5 -335.96)"/><path class="cls-1" d="M810.08,480.7c-5.37,11.39-25,38.37-34.44,38.23-17.93-.26-6.28-41.5,3.67-54.73,8.12-10.87,16.5-1.44,12.31,4.85-11.39,16.76-19.38,41.24-13.62,41.77,8.91,1,30.38-40.59,35.36-48.19,2.75-4.19,6.67-4.19,9.16-2.1,2.23,1.45,4.58,4.33,3.8,7.73-7.86,36-18.07,112.22-62.85,118-32.08,3.93-36.8-33-1.57-49.37-31.69-3.66-54.74,3.54-44.92,24.1,1.71,2.62-3.92,8.25-7.85.39-10.22-31.82,35.61-36.4,61.8-30.25,12.83-3.4,10.61,11,1.83,7.6C741.21,553.37,740,583.1,762,579.56,789.92,575.37,803,521.55,810.08,480.7Z" transform="translate(-133.5 -335.96)"/><circle class="cls-1" cx="127.87" cy="149.38" r="124.2"/><path class="cls-1" d="M347.37,480c16.28-10.25,24.79-25.63,35.13-44.31,9.89-17.87,6.52-23.74,4.62-25.44a19.19,19.19,0,0,0-2.2-1.58,19.57,19.57,0,0,0-.27-2.7c-.52-2.5-3.93-8.34-24.34-8.71-21.35-.39-38.91-.71-55.93,8.25-.75-19.22-9.81-34.27-20.82-52.57-10.53-17.5-17.29-17.51-19.71-16.71a16,16,0,0,0-2.47,1.11,16.81,16.81,0,0,0-2.48-1.11c-2.41-.8-9.18-.79-19.71,16.71-11,18.3-20.07,33.35-20.82,52.57-13.65-7.19-27.66-8.41-43.7-8.41-3.94,0-8,.08-12.23.16-20.42.37-23.82,6.21-24.34,8.71a18.68,18.68,0,0,0-.26,2.7,17.83,17.83,0,0,0-2.21,1.58c-1.91,1.7-5.27,7.57,4.62,25.44,10.34,18.68,18.85,34.06,35.12,44.31a68,68,0,0,0-16.64,14.93c-6.85,8.38-12.34,18.3-18.48,29.38-9.89,17.86-6.53,23.74-4.62,25.43a16.73,16.73,0,0,0,2.21,1.58,18.48,18.48,0,0,0,.26,2.7c.52,2.5,3.92,8.34,24.34,8.72,4.22.07,8.29.15,12.24.15,16,0,30-1.22,43.69-8.41.75,19.23,9.81,34.28,20.82,52.57,8.68,14.43,14.8,17,18,17a5.35,5.35,0,0,0,1.67-.25,18.88,18.88,0,0,0,2.48-1.12,17.83,17.83,0,0,0,2.47,1.12c2.42.8,9.19.77,19.71-16.72,11-18.29,20.07-33.34,20.82-52.57,13.66,7.19,27.66,8.41,43.69,8.41,3.95,0,8-.08,12.24-.15,20.41-.38,23.82-6.22,24.34-8.72a19.35,19.35,0,0,0,.27-2.7,17.91,17.91,0,0,0,2.2-1.58c1.9-1.69,5.27-7.57-4.62-25.43C372.16,505.62,363.65,490.24,347.37,480Zm12.83-76.62c14.65.26,18,3.49,18.49,4,.08.69.15,2.3.16,2.93,0,.1,0,.21,0,.32a3,3,0,0,0,.93,2h0a3.57,3.57,0,0,0,.37.31,2.46,2.46,0,0,0,.27.17c.55.32,1.89,1.18,2.45,1.61a4.82,4.82,0,0,1,.21,1.61c0,2.31-.88,7.24-6,16.41-10.9,19.7-19.09,34.49-35.95,43.83a65.67,65.67,0,0,1-6.18,3l-1.07.44a74,74,0,0,1-28,5.33,95.27,95.27,0,0,1-29.9-5.08c-3.45-1.15-6.43-2.35-8.85-3.42a1.84,1.84,0,0,0,.22-.17c12.21-9.45,32.79-29.58,36.51-59.91.18-1.41.31-2.79.4-4.15C320.79,402.65,337.7,403,360.2,403.37ZM244.43,356.09c7.56-12.56,12-13.86,12.74-14,.64.27,2.08,1,2.62,1.32a2.49,2.49,0,0,0,.28.15,3.16,3.16,0,0,0,1.31.29,3,3,0,0,0,1.3-.29,1.51,1.51,0,0,0,.28-.15c.54-.3,2-1.05,2.61-1.32.35.07,1.65.42,3.81,2.33s5.16,5.38,8.94,11.66c11.6,19.29,20.32,33.77,20,53,0,2.22-.21,4.5-.49,6.87-.05.38-.1.77-.16,1.15-3.27,23.55-17.61,40.45-28.75,50.3-2.72,2.4-5.25,4.39-7.38,5.95l0-.3c-2.09-15.3-9.24-43.18-33.63-61.55-1.13-.85-2.27-1.66-3.4-2.42C224.11,389.87,232.82,375.38,244.43,356.09Zm-98.82,76.62c-7.1-12.83-6-17.36-5.75-18,.55-.43,1.9-1.29,2.46-1.61l.26-.17a3,3,0,0,0,.89-1,2.93,2.93,0,0,0,.42-1.3c0-.1,0-.2,0-.31,0-.63.08-2.24.18-2.93.46-.54,3.82-3.77,18.48-4,22.51-.41,39.41-.72,55.93,9.22a60,60,0,0,1,5.69,3.85c.32.23.62.47.93.71,18.75,14.61,26.21,35.46,29.17,50,.73,3.57,1.18,6.75,1.47,9.38l-.26-.1c-14.29-5.85-42-13.61-70.14-1.66-1.3.55-2.57,1.13-3.78,1.74h0C164.69,467.2,156.5,452.4,145.61,432.71Zm16.94,123.9c-14.66-.27-18-3.5-18.48-4-.1-.69-.16-2.29-.18-2.93,0-.1,0-.2,0-.3a3.07,3.07,0,0,0-.26-1h0a3.09,3.09,0,0,0-1-1.27l-.26-.16c-.56-.33-1.91-1.19-2.46-1.61a4.9,4.9,0,0,1-.21-1.62c0-2.31.88-7.24,6-16.41,10.89-19.69,19.08-34.49,35.94-43.82a64.69,64.69,0,0,1,6.19-3l1.06-.44c22-8.94,43.85-5,57.95-.25.65.22,1.28.43,1.89.65l1.79.66,1,.39,1.24.49,1,.4,1,.42.47.2.46.2-.22.17h0c-12.2,9.45-32.79,29.59-36.5,59.91-.17,1.42-.31,2.8-.39,4.16C202,557.32,185.05,557,162.55,556.61Zm115.77,47.27c-7.56,12.56-12,13.87-12.75,14-.63-.26-2.06-1-2.62-1.32l-.26-.14a2.91,2.91,0,0,0-1.33-.3,3.21,3.21,0,0,0-1.31.3l-.25.14c-.56.32-2,1.06-2.63,1.32-.35-.06-1.64-.42-3.79-2.33s-5.17-5.38-8.95-11.66c-11.61-19.28-20.32-33.77-20-53a63.18,63.18,0,0,1,.48-6.86l.15-1.16c3.28-23.55,17.62-40.44,28.76-50.29,2.71-2.41,5.24-4.4,7.37-6,0,.1,0,.19,0,.29h0c2.08,15.29,9.22,43.18,33.62,61.56,1.14.86,2.27,1.66,3.41,2.42C298.64,570.11,289.92,584.6,278.32,603.88Zm104.57-58.59c-.56.42-1.9,1.28-2.45,1.61l-.27.16a3,3,0,0,0-.79.8,3.13,3.13,0,0,0-.52,1.47c0,.1,0,.21,0,.31,0,.63-.08,2.24-.16,2.93-.23.27-1.19,1.22-3.92,2.12s-7.24,1.79-14.57,1.92c-22.5.4-39.41.71-55.92-9.22a62.88,62.88,0,0,1-5.7-3.86c-.31-.24-.63-.47-.93-.71-18.76-14.61-26.22-35.47-29.18-50h0c-.73-3.56-1.18-6.75-1.46-9.37l.24.1h0a104.06,104.06,0,0,0,38.67,7.94,80.06,80.06,0,0,0,31.47-6.27c1.3-.56,2.57-1.13,3.79-1.74,16.86,9.33,25.05,24.12,35.95,43.82C384.24,540.09,383.13,544.62,382.89,545.29Z" transform="translate(-133.5 -335.96)"/><path class="cls-2" d="M342,483.93c.06-1.31.09-2.62.09-3.94s0-2.64-.09-3.94c16.29-9.36,24.39-24,35.1-43.34,5.08-9.17,6-14.1,6-16.41a4.82,4.82,0,0,0-.21-1.61c-.56-.43-1.9-1.29-2.45-1.61a2.46,2.46,0,0,1-.27-.17,3.57,3.57,0,0,1-.37-.31h0a3,3,0,0,1-.93-2c0-.11,0-.22,0-.32,0-.63-.08-2.24-.16-2.93-.46-.54-3.84-3.77-18.49-4-22.12-.4-38.83-.7-55.08,8.72-2.2-1.42-4.48-2.74-6.82-3.94,0-18.79-8.58-33.1-20-52.06-3.78-6.28-6.79-9.74-8.94-11.66s-3.46-2.26-3.81-2.33c-.63.27-2.07,1-2.61,1.32a1.51,1.51,0,0,1-.28.15,3,3,0,0,1-1.3.29,3.16,3.16,0,0,1-1.31-.29,2.49,2.49,0,0,1-.28-.15c-.54-.3-2-1.05-2.62-1.32-.7.13-5.18,1.43-12.74,14-11.41,19-20,33.28-20,52.05-2.34,1.21-4.62,2.53-6.82,3.95-16.25-9.42-33-9.12-55.08-8.72-14.66.26-18,3.49-18.48,4-.1.69-.16,2.3-.18,2.93,0,.11,0,.21,0,.31a3.14,3.14,0,0,1-1.31,2.27l-.26.17c-.56.32-1.91,1.18-2.46,1.61-.24.66-1.35,5.19,5.75,18,10.71,19.36,18.81,34,35.1,43.34-.06,1.31-.1,2.62-.1,3.94s0,2.63.1,3.93c-16.29,9.36-24.39,24-35.1,43.34-5.08,9.17-6,14.1-6,16.41a4.9,4.9,0,0,0,.21,1.62c.55.42,1.9,1.28,2.46,1.61l.26.16a3.09,3.09,0,0,1,1,1.27h0a3.07,3.07,0,0,1,.26,1c0,.1,0,.2,0,.3,0,.64.08,2.24.18,2.93.45.54,3.82,3.77,18.48,4,22.12.39,38.83.69,55.08-8.73,2.2,1.42,4.48,2.74,6.82,4,0,18.78,8.57,33.1,20,52,3.78,6.28,6.79,9.75,8.95,11.66s3.44,2.27,3.79,2.33c.64-.26,2.07-1,2.63-1.32l.25-.14a3.21,3.21,0,0,1,1.31-.3,2.91,2.91,0,0,1,1.33.3l.26.14c.56.32,2,1.06,2.62,1.32.71-.12,5.19-1.43,12.75-14,11.4-19,20-33.27,20-52,2.34-1.21,4.62-2.53,6.82-4,16.25,9.42,33,9.12,55.08,8.73,7.33-.13,11.83-1,14.57-1.92s3.69-1.85,3.92-2.12c.08-.69.15-2.3.16-2.93,0-.1,0-.21,0-.31a3.13,3.13,0,0,1,.52-1.47,3,3,0,0,1,.79-.8l.27-.16c.55-.33,1.89-1.19,2.45-1.61.24-.67,1.35-5.2-5.75-18C366.43,507.9,358.33,493.28,342,483.93Z" transform="translate(-133.5 -335.96)"/><path class="cls-1" d="M225.16,562a13.78,13.78,0,0,1-9.25-3.23c-5.11-1.73-10.7-7.17-11-22.56v-.31c0-2.39-.08-4.62-.08-6.84a78.83,78.83,0,0,1,1.53-17.3c-7.72-2.44-14.64-6.6-21.9-11-13.17-7.92-15.08-15.49-14-20.79-1-5.3.91-12.86,14-20.77,7.25-4.37,14.17-8.53,21.89-11-1.74-7.88-1.6-16-1.44-24.41.28-15.41,5.87-20.86,11-22.6,4.08-3.53,11.59-5.64,25,1.79,6.55,3.62,12.75,7,18.19,11.51.79.65,1.54,1.3,2.26,2,6-5.45,13-9.36,20.42-13.46,13.47-7.45,21-5.35,25-1.8,5.11,1.73,10.7,7.16,11,22.56.15,8.48.29,16.56-1.45,24.45,7.72,2.44,14.63,6.6,21.89,11,13.17,7.92,15.09,15.48,14.05,20.78,1.06,5.29-.85,12.84-14.05,20.79-2,1.19-4.1,2.47-6.15,3.65a78.78,78.78,0,0,1-15.74,7.32c1.74,7.9,1.6,16,1.45,24.44-.2,11.06-3.18,18.32-8.85,21.58a11.61,11.61,0,0,1-2.12,1c-4.06,3.55-11.58,5.68-25-1.76-6.55-3.62-12.73-7-18.18-11.51-.79-.65-1.54-1.3-2.27-2a79,79,0,0,1-14.21,10c-1.93,1.11-3.87,2.19-5.94,3.33l-.3.17C234.83,560.34,229.68,562,225.16,562Zm0-155.39a5.36,5.36,0,0,0-4,1.41,4.25,4.25,0,0,1-2.1,1.21c-3.4.81-5.45,6.19-5.61,14.76-.17,9.7-.32,18.07,2.21,26a4.28,4.28,0,0,1-3.17,5.49c-8.15,1.77-15.32,6.09-23.63,11.1-7.31,4.39-10.94,8.85-10,12.24a4.3,4.3,0,0,1,0,2.41c-1,3.36,2.63,7.82,9.95,12.22,8.32,5,15.5,9.33,23.64,11.1A4.29,4.29,0,0,1,215.7,510c-2,6.28-2.29,12.86-2.29,19,0,2.15,0,4.34.08,6.65V536c.15,8.55,2.19,13.92,5.59,14.73a4.26,4.26,0,0,1,2.12,1.22,5.14,5.14,0,0,0,3.95,1.43c2.05,0,5.74-.69,11.61-3.94l.26-.14c2.07-1.15,4-2.21,5.84-3.28,5.35-3.09,10.9-6.62,15.33-11.5a4.29,4.29,0,0,1,6.34,0,43.3,43.3,0,0,0,4.53,4.29c4.85,4,10.7,7.2,16.9,10.63,7.47,4.14,13.14,5,15.57,2.5a4.25,4.25,0,0,1,2.1-1.21,4.27,4.27,0,0,0,1.05-.42c2.81-1.62,4.42-6.7,4.56-14.31.17-9.71.32-18.09-2.21-26a4.29,4.29,0,0,1,3.17-5.49c6.44-1.39,12.27-4.44,17.62-7.52,2-1.15,4-2.34,6-3.57,7.34-4.42,11-8.87,10-12.21a4.29,4.29,0,0,1,0-2.46c1-3.36-2.63-7.81-10-12.21-8.31-5-15.49-9.33-23.63-11.1A4.28,4.28,0,0,1,307,450c2.53-7.93,2.38-16.31,2.21-26-.16-8.56-2.2-13.93-5.6-14.73a4.27,4.27,0,0,1-2.13-1.22c-2.41-2.54-8.09-1.62-15.58,2.53-8.48,4.69-15.81,8.75-21.4,14.9a4.29,4.29,0,0,1-3.17,1.4h0a4.3,4.3,0,0,1-3.17-1.4,43.29,43.29,0,0,0-4.53-4.28c-4.84-4-10.69-7.21-16.9-10.63C232.09,407.91,228.11,406.59,225.2,406.59Z" transform="translate(-133.5 -335.96)"/><path class="cls-3" d="M347.91,480c1.16-3.93-.05-10-11.86-17.1-8.54-5.15-16.09-9.7-24.93-11.61,2.75-8.61,2.59-17.44,2.41-27.41-.25-13.81-4.93-17.89-8.9-18.82-2.82-3-8.68-5-20.77,1.73-8.71,4.82-16.42,9.1-22.49,15.77a46.81,46.81,0,0,0-5-4.71c-5.14-4.22-11.16-7.55-17.54-11.07-12-6.66-17.89-4.7-20.74-1.72-4,.95-8.65,5-8.9,18.85-.18,10-.34,18.79,2.41,27.38-8.84,1.91-16.4,6.46-24.93,11.6C174.93,470,173.68,476,174.83,480c-1.16,3.93,0,10,11.86,17.11,8.54,5.15,16.1,9.7,24.93,11.62-2,6.31-2.49,12.83-2.49,20.33,0,2.2,0,4.42.08,6.76v.31c.25,13.8,4.93,17.88,8.89,18.82a9.27,9.27,0,0,0,7.06,2.76c3.31,0,7.75-1.18,13.69-4.47l.26-.14c2.06-1.14,4-2.22,5.91-3.32,6.49-3.75,11.9-7.42,16.35-12.33a47,47,0,0,0,5,4.72c5.14,4.22,11.16,7.55,17.53,11.07,12,6.66,17.92,4.68,20.75,1.71a8.4,8.4,0,0,0,2.2-.89c4.27-2.45,6.52-8.49,6.69-17.93.18-10,.34-18.8-2.41-27.4,6.47-1.4,12.36-4.25,18.85-8,2-1.15,4-2.37,6.08-3.62C347.9,490,349.08,483.87,347.91,480Z" transform="translate(-133.5 -335.96)"/><path class="cls-1" d="M343.64,480a8.26,8.26,0,0,0,.41-1c.69-2.08.3-6.5-10-12.73-9.89-5.95-18.15-10.91-28.37-11.84,4.3-9.33,4.12-19,3.92-30.51-.22-12.07-3.85-14.61-6-15.05a8.4,8.4,0,0,0-1.06-.13,7,7,0,0,0-.65-.85c-1.45-1.64-5.47-3.51-16,2.33-10.12,5.6-18.53,10.25-24.45,18.65a40.51,40.51,0,0,0-7.52-8c-4.83-4-10.55-7.13-16.93-10.67-10.57-5.84-14.58-4-16-2.33a7.25,7.25,0,0,0-.64.85,8.38,8.38,0,0,0-1.07.13c-2.13.44-5.77,3-6,15.05-.2,11.55-.38,21.18,3.93,30.51-10.24.93-18.48,5.89-28.38,11.84-10.34,6.23-10.73,10.65-10,12.73a9,9,0,0,0,.42,1,8.21,8.21,0,0,0-.42,1c-.69,2.08-.3,6.49,10,12.71,9.9,6,18.14,10.93,28.38,11.86-3.41,7.37-4,14.94-4,23.5,0,2.25,0,4.58.08,7,.22,12.07,3.86,14.62,6,15.06a9.9,9.9,0,0,0,1.07.14,8.3,8.3,0,0,0,.64.85c1.45,1.63,5.47,3.51,16-2.34,2.11-1.17,4.15-2.29,6.1-3.43,7.41-4.27,13.67-8.59,18.35-15.22a40.43,40.43,0,0,0,7.5,8c4.84,4,10.56,7.14,16.95,10.67,10.56,5.85,14.57,4,16,2.34a7.91,7.91,0,0,0,.65-.85,10,10,0,0,0,1.06-.14,4.26,4.26,0,0,0,1.29-.49c2.06-1.19,4.52-4.7,4.7-14.57.2-11.54.38-21.17-3.92-30.49,8.09-.74,14.94-4,22.34-8.27,2-1.14,3.95-2.33,6-3.59,10.34-6.22,10.73-10.63,10-12.71A7.6,7.6,0,0,0,343.64,480ZM219.31,424.05c.11-6.22,1.18-8.53,1.62-9.22l1,0h.29a3.15,3.15,0,0,0,1.28-.4,3,3,0,0,0,1-.9,1.84,1.84,0,0,0,.17-.25c.12-.21.34-.56.53-.85h.15c1,0,3.49.37,8.64,3.22,10.71,5.93,18.81,10.41,24,19.25-.24.51-.48,1-.71,1.58-5.16,12.16-3.25,25.64-.9,34.43h0c.41,1.56.85,3,1.25,4.21a71.44,71.44,0,0,1-7.55-1.88h0c-6.52-2-14.57-5.56-20.66-11.73a33.31,33.31,0,0,1-2.89-3.34,37.26,37.26,0,0,1-2.44-3.69C218.92,445.54,219.09,436.29,219.31,424.05ZM191.9,488.44c-5.33-3.2-6.79-5.28-7.18-6,.16-.32.36-.69.47-.9s.09-.16.13-.24a3,3,0,0,0,.29-1.31,2.72,2.72,0,0,0,0-.28h0a2.93,2.93,0,0,0-.28-1c0-.09-.08-.17-.13-.26l-.47-.89a8.56,8.56,0,0,1,1.73-2.07,32.9,32.9,0,0,1,5.45-3.93c10.49-6.32,18.43-11.08,28.65-11.13.32.47.66.94,1,1.4,8,10.57,20.6,15.65,29.38,18h0c1.55.42,3,.76,4.25,1a66.55,66.55,0,0,1-5.41,5.61c-5,4.65-12.1,9.84-20.47,12h0a32.94,32.94,0,0,1-4.34.84,35.79,35.79,0,0,1-4.43.27C210.33,499.53,202.39,494.76,191.9,488.44ZM261.35,517h0a32.46,32.46,0,0,1-1.45,4.19,34.81,34.81,0,0,1-2,4h0c-5.15,8.84-13.25,13.33-24,19.26-5.44,3-8,3.24-8.79,3.2-.19-.29-.41-.64-.53-.85l-.16-.24a3.1,3.1,0,0,0-1.18-1h0a2.53,2.53,0,0,0-.62-.22h0a4.63,4.63,0,0,0-.52-.07h-.21l-1-.05c-.44-.69-1.51-3-1.62-9.21-.22-12.24-.39-21.51,4.7-30.38.56,0,1.13-.11,1.72-.18a44,44,0,0,0,16.61-5.8A67.17,67.17,0,0,0,256,488.94h0c1.15-1.14,2.15-2.21,3-3.18a69.7,69.7,0,0,1,2.15,7.47h0C262.7,499.89,263.65,508.62,261.35,517Zm.22-50.25c-1.53-6.65-2.47-15.4-.17-23.75a33.71,33.71,0,0,1,1.44-4.17,34.19,34.19,0,0,1,2-4c5.15-8.85,13.25-13.32,23.95-19.25,5.45-3,8-3.25,8.79-3.21.2.3.43.64.54.85l.17.25a3.06,3.06,0,0,0,2.4,1.31h.13l1,0a8.43,8.43,0,0,1,.93,2.54,31.84,31.84,0,0,1,.68,6.68c.23,12.24.39,21.49-4.69,30.38-.56,0-1.13.11-1.71.17-13.13,1.61-23.84,10-30.28,16.43-1.15,1.14-2.15,2.22-3,3.19A68.36,68.36,0,0,1,261.57,466.73Zm41.86,69.2c-.1,6.21-1.17,8.52-1.6,9.21l-1,.05h-.27a3.15,3.15,0,0,0-1.28.4h0a3.12,3.12,0,0,0-1,.91,1.14,1.14,0,0,0-.15.23c-.12.21-.35.56-.54.85h-.13c-.93,0-3.48-.34-8.66-3.2-10.71-5.94-18.81-10.42-24-19.26.24-.51.48-1,.71-1.57,5.16-12.17,3.25-25.64.91-34.44h0c-.42-1.57-.85-3-1.26-4.21a68.59,68.59,0,0,1,7.56,1.88c6.53,2,14.57,5.55,20.65,11.72h0a34,34,0,0,1,5.33,7C303.82,514.42,303.66,523.69,303.43,535.93Zm34-54.65c0,.09.09.18.14.27s.31.58.46.89a7.9,7.9,0,0,1-1.73,2.07,31.72,31.72,0,0,1-5.44,3.93c-10.48,6.32-18.42,11.08-28.65,11.13-.32-.47-.66-.94-1-1.4-8-10.56-20.59-15.65-29.37-18-1.57-.43-3-.76-4.28-1a71.53,71.53,0,0,1,5.41-5.61c5-4.64,12.11-9.83,20.49-12a32.62,32.62,0,0,1,4.34-.83,35.63,35.63,0,0,1,4.42-.27c10.23.05,18.16,4.81,28.65,11.13,5.32,3.21,6.8,5.27,7.17,6-.15.31-.34.69-.46.89A3.08,3.08,0,0,0,337.42,481.28Z" transform="translate(-133.5 -335.96)"/><path class="cls-4" d="M225,499.3a32.94,32.94,0,0,0,4.34-.84h0c8.37-2.18,15.47-7.37,20.47-12a66.55,66.55,0,0,0,5.41-5.61c-1.26-.26-2.69-.6-4.25-1h0c-8.78-2.36-21.42-7.44-29.38-18-.35-.46-.69-.93-1-1.4-10.22.05-18.16,4.81-28.65,11.13a33.35,33.35,0,0,0-5.45,3.93,8.83,8.83,0,0,0-1.73,2.07l.47.89.14.26a3.14,3.14,0,0,1,.27,1h0c0,.1,0,.19,0,.28a3,3,0,0,1-.3,1.31c0,.08-.08.16-.13.24s-.31.58-.47.9c.39.72,1.85,2.8,7.18,6,10.49,6.32,18.43,11.09,28.65,11.13A35.79,35.79,0,0,0,225,499.3Z" transform="translate(-133.5 -335.96)"/><path class="cls-4" d="M261.17,493.22a69.7,69.7,0,0,0-2.15-7.47c-.86,1-1.86,2-3,3.18h0a67.36,67.36,0,0,1-13.65,10.63,44.14,44.14,0,0,1-16.62,5.8c-.59.07-1.16.14-1.72.18-5.09,8.87-4.92,18.14-4.7,30.38.12,6.21,1.18,8.52,1.62,9.21l1,.05h.21a4.63,4.63,0,0,1,.52.07h0a2.61,2.61,0,0,1,.61.22h0a3,3,0,0,1,1.18,1l.16.24c.12.21.34.56.54.85.82,0,3.34-.19,8.78-3.2,10.71-5.93,18.81-10.42,24-19.26h0a34.81,34.81,0,0,0,2-4,31,31,0,0,0,1.45-4.19h0c2.3-8.36,1.35-17.09-.18-23.75Z" transform="translate(-133.5 -335.96)"/><path class="cls-4" d="M296.31,501.85a34.55,34.55,0,0,0-2.9-3.34h0c-6.08-6.17-14.12-9.71-20.64-11.72a69.25,69.25,0,0,0-7.57-1.88c.41,1.23.84,2.64,1.26,4.21h0c2.34,8.8,4.25,22.27-.91,34.44-.23.54-.47,1.06-.71,1.57,5.15,8.84,13.25,13.32,24,19.26,5.19,2.86,7.73,3.2,8.66,3.2h.13c.19-.29.42-.64.54-.85a1.14,1.14,0,0,1,.15-.23,3.12,3.12,0,0,1,1-.91h0a3.15,3.15,0,0,1,1.28-.4h.28l1-.05c.43-.69,1.5-3,1.61-9.21.22-12.24.39-21.51-4.7-30.38A34.51,34.51,0,0,0,296.31,501.85Z" transform="translate(-133.5 -335.96)"/><path class="cls-4" d="M337.42,481.28a3.08,3.08,0,0,1,.14-2.86c.12-.2.31-.58.46-.89-.37-.73-1.84-2.79-7.17-6-10.48-6.32-18.42-11.08-28.65-11.13a35.63,35.63,0,0,0-4.42.27,32.47,32.47,0,0,0-4.33.83c-8.39,2.2-15.49,7.39-20.5,12a73.42,73.42,0,0,0-5.41,5.61c1.27.27,2.71.6,4.28,1,8.78,2.35,21.41,7.44,29.37,18,.36.46.7.93,1,1.4,10.23-.05,18.17-4.81,28.65-11.13a32.32,32.32,0,0,0,5.45-3.93,8,8,0,0,0,1.72-2.07c-.14-.31-.34-.68-.46-.89S337.46,481.37,337.42,481.28Z" transform="translate(-133.5 -335.96)"/><path class="cls-4" d="M226.45,458.12a33.39,33.39,0,0,0,2.9,3.34c6.08,6.17,14.13,9.72,20.66,11.73h0a71.44,71.44,0,0,0,7.55,1.88c-.4-1.23-.83-2.65-1.25-4.21h0c-2.35-8.79-4.26-22.27.9-34.43.23-.54.47-1.07.71-1.58-5.15-8.84-13.25-13.32-24-19.25-5.15-2.85-7.69-3.22-8.64-3.22h-.14c-.2.29-.42.64-.54.85a1.84,1.84,0,0,1-.17.25,3,3,0,0,1-1,.9,3.15,3.15,0,0,1-1.28.4h-.29l-1,0c-.44.69-1.5,3-1.62,9.22-.22,12.24-.39,21.49,4.7,30.38A37.26,37.26,0,0,0,226.45,458.12Z" transform="translate(-133.5 -335.96)"/><path class="cls-4" d="M297,454.6c.59-.06,1.15-.13,1.71-.17,5.09-8.89,4.92-18.14,4.7-30.38a32.54,32.54,0,0,0-.68-6.68,8.34,8.34,0,0,0-.94-2.54l-1,0h-.14a3.06,3.06,0,0,1-2.4-1.31l-.17-.25c-.11-.21-.34-.55-.54-.85-.82,0-3.34.2-8.78,3.21-10.71,5.93-18.81,10.4-24,19.25a35.85,35.85,0,0,0-2,4A33.71,33.71,0,0,0,261.4,443c-2.3,8.35-1.35,17.1.18,23.75a70.92,70.92,0,0,0,2.15,7.49c.87-1,1.87-2.05,3-3.19C273.19,464.6,283.9,456.21,297,454.6Z" transform="translate(-133.5 -335.96)"/></svg>